<?xml version="1.0" encoding="UTF-8" standalone="no"?>
<svg
   version="1.1"
   viewBox="0 0 170 120"
   fill="none"
   stroke="none"
   stroke-linecap="square"
   stroke-miterlimit="10"
   id="svg99"
   sodipodi:docname="standard issue.svg"
   inkscape:version="1.4 (86a8ad7, 2024-10-11)"
   width="170"
   height="120"
   xmlns:inkscape="http://www.inkscape.org/namespaces/inkscape"
   xmlns:sodipodi="http://sodipodi.sourceforge.net/DTD/sodipodi-0.dtd"
   xmlns="http://www.w3.org/2000/svg"
   xmlns:svg="http://www.w3.org/2000/svg">
  <defs
     id="defs99">
    <clipPath
       clipPathUnits="userSpaceOnUse"
       id="clipPath19">
      <path
         d="M 0,0 H 240 V 175 H 0 Z"
         clip-rule="nonzero"
         id="path20" />
    </clipPath>
  </defs>
  <sodipodi:namedview
     id="namedview99"
     pagecolor="#ffffff"
     bordercolor="#000000"
     borderopacity="0.25"
     inkscape:showpageshadow="2"
     inkscape:pageopacity="0.0"
     inkscape:pagecheckerboard="0"
     inkscape:deskcolor="#d1d1d1"
     inkscape:zoom="4"
     inkscape:cx="75.5"
     inkscape:cy="62.875"
     inkscape:window-width="2560"
     inkscape:window-height="1009"
     inkscape:window-x="-8"
     inkscape:window-y="-8"
     inkscape:window-maximized="1"
     inkscape:current-layer="svg99"
     showguides="false" />
  <path
     style="fill:#b7b7b7;fill-opacity:1;stroke:none;stroke-width:5.29384;stroke-linecap:round;stroke-linejoin:round;stroke-miterlimit:10;stroke-dasharray:none;stroke-opacity:1"
     d="M 45.149285,111.37821 V 85.967778 c 0,0 -2.828583,-50.820858 42.350714,-50.820858 45.179301,0 42.350711,50.820858 42.350711,50.820858 v 25.410432 z"
     id="path1"
     sodipodi:nodetypes="cczccc" />
  <path
     style="fill:none;fill-opacity:1;stroke:#000000;stroke-width:4.23507;stroke-linecap:round;stroke-linejoin:round;stroke-miterlimit:10;stroke-dasharray:none;stroke-opacity:0.179104"
     d="M 57.8545,112 V 86 c 0,0 0.239794,-16.646042 2.6455,-24.5 1.877847,-6.130645 4.463282,-12.469073 9,-17 C 74.300341,39.705785 87.499999,35 87.499999,35"
     id="path2"
     sodipodi:nodetypes="ccaac" />
  <path
     style="fill:#cd00ae;fill-opacity:1;stroke:#a9a9a9;stroke-width:5.99419;stroke-linecap:round;stroke-linejoin:round;stroke-miterlimit:10;stroke-dasharray:none;stroke-opacity:1"
     d="m 79.85252,64.44128 3.5e-4,10.939507 6.726859,5.749851 6.759375,-6.199648 V 64.441152 l -6.743291,-5.749723 z"
     id="path3"
     sodipodi:nodetypes="ccccccc"
     inkscape:highlight-color="#aaaaaa"
     inkscape:label="crystal" />
  <path
     style="fill:#cd00ae;fill-opacity:1;stroke:#a9a9a9;stroke-width:5.99419;stroke-linecap:round;stroke-linejoin:round;stroke-miterlimit:10;stroke-dasharray:none;stroke-opacity:1"
     d="m 107.38079,64.44128 v 10.939507 l 6.72685,5.749851 6.76008,-6.199648 V 64.441152 l -6.74347,-5.749723 z"
     id="path4"
     sodipodi:nodetypes="ccccccc"
     inkscape:label="crystal" />
  <path
     style="fill:none;fill-opacity:1;stroke:#3a3a3a;stroke-width:5.29384;stroke-linecap:round;stroke-linejoin:round;stroke-miterlimit:10;stroke-dasharray:none;stroke-opacity:1"
     d="M 45,112 V 86 C 45,86 42.320702,35 87.499999,35 132.6793,35 130,86 130,86 v 26 z"
     id="path5"
     sodipodi:nodetypes="cczccc" />
  <path
     style="fill:#cd00ae;fill-opacity:1;stroke:none;stroke-width:2.11754;stroke-linecap:round;stroke-linejoin:round;stroke-miterlimit:10;stroke-dasharray:none;stroke-opacity:1"
     id="path6"
     sodipodi:type="arc"
     sodipodi:cx="51.501583"
     sodipodi:cy="105.0256"
     sodipodi:rx="2.9116118"
     sodipodi:ry="2.9116118"
     sodipodi:start="0.77584661"
     sodipodi:end="0.77186254"
     sodipodi:arc-type="slice"
     d="m 53.579974,107.06466 a 2.9116118,2.9116118 0 0 1 -4.115382,0.0414 2.9116118,2.9116118 0 0 1 -0.04546,-4.11534 2.9116118,2.9116118 0 0 1 4.115292,-0.0496 2.9116118,2.9116118 0 0 1 0.05366,4.11524 l -2.086499,-2.03076 z"
     inkscape:label="crystal" />
  <path
     style="fill:none;fill-opacity:1;stroke:none;stroke-width:2.32929;stroke-linecap:round;stroke-linejoin:round;stroke-miterlimit:10;stroke-dasharray:none;stroke-opacity:1"
     id="path7"
     sodipodi:type="arc"
     sodipodi:cx="86.595306"
     sodipodi:cy="69.911598"
     sodipodi:rx="2.256"
     sodipodi:ry="3.4939339"
     sodipodi:start="0.77584661"
     sodipodi:end="0.77186254"
     sodipodi:arc-type="slice"
     d="m 88.205703,72.358472 a 2.256,3.4939339 0 0 1 -3.188715,0.04963 2.256,3.4939339 0 0 1 -0.03522,-4.938406 2.256,3.4939339 0 0 1 3.188646,-0.05947 2.256,3.4939339 0 0 1 0.04157,4.938287 l -1.616679,-2.436918 z"
     inkscape:label="eye_circle" />
  <path
     style="fill:none;fill-opacity:1;stroke:none;stroke-width:2.32929;stroke-linecap:round;stroke-linejoin:round;stroke-miterlimit:10;stroke-dasharray:none;stroke-opacity:1"
     id="path8"
     sodipodi:type="arc"
     sodipodi:cx="114.12322"
     sodipodi:cy="69.911598"
     sodipodi:rx="2.2564991"
     sodipodi:ry="3.4939339"
     sodipodi:start="0.77584661"
     sodipodi:end="0.77186254"
     sodipodi:arc-type="slice"
     d="m 115.73398,72.358472 a 2.2564991,3.4939339 0 0 1 -3.18943,0.04963 2.2564991,3.4939339 0 0 1 -0.0352,-4.938406 2.2564991,3.4939339 0 0 1 3.18936,-0.05947 2.2564991,3.4939339 0 0 1 0.0416,4.938287 l -1.61704,-2.436918 z"
     inkscape:label="eye_circle" />
  <rect
     style="fill:#b5b5b5;fill-opacity:1;stroke:none;stroke-width:2.07203;stroke-linecap:round;stroke-linejoin:round;stroke-miterlimit:10;stroke-dasharray:none;stroke-opacity:1"
     id="rect8"
     width="44.93726"
     height="15.669765"
     x="77.891922"
     y="88.988991"
     inkscape:label="mouth_box" />
</svg>
