<?xml version="1.0" encoding="UTF-8" standalone="no"?>
<svg
   version="1.1"
   viewBox="0 0 170 120"
   fill="none"
   stroke="none"
   stroke-linecap="square"
   stroke-miterlimit="10"
   id="svg99"
   sodipodi:docname="watcher.svg"
   inkscape:version="1.4 (86a8ad7, 2024-10-11)"
   width="170"
   height="120"
   xmlns:inkscape="http://www.inkscape.org/namespaces/inkscape"
   xmlns:sodipodi="http://sodipodi.sourceforge.net/DTD/sodipodi-0.dtd"
   xmlns="http://www.w3.org/2000/svg"
   xmlns:svg="http://www.w3.org/2000/svg">
  <defs
     id="defs99">
    <clipPath
       clipPathUnits="userSpaceOnUse"
       id="clipPath19">
      <path
         d="M 0,0 H 240 V 175 H 0 Z"
         clip-rule="nonzero"
         id="path20" />
    </clipPath>
  </defs>
  <sodipodi:namedview
     id="namedview99"
     pagecolor="#ffffff"
     bordercolor="#000000"
     borderopacity="0.25"
     inkscape:showpageshadow="2"
     inkscape:pageopacity="0.0"
     inkscape:pagecheckerboard="0"
     inkscape:deskcolor="#d1d1d1"
     inkscape:zoom="8"
     inkscape:cx="56.25"
     inkscape:cy="85.1875"
     inkscape:window-width="2560"
     inkscape:window-height="1009"
     inkscape:window-x="-8"
     inkscape:window-y="-8"
     inkscape:window-maximized="1"
     inkscape:current-layer="svg99"
     showguides="false" />
  <path
     style="fill:#595959;fill-opacity:1;stroke:none;stroke-width:4.95893;stroke-linecap:round;stroke-linejoin:round;stroke-miterlimit:10;stroke-dasharray:none;stroke-opacity:1"
     d="M 44.970346,106.3788 V 82.575919 c 0,0 -2.649636,-47.605746 39.671456,-47.605746 42.321098,0 39.671448,47.605746 39.671448,47.605746 V 106.3788 Z"
     id="path1"
     sodipodi:nodetypes="cczccc" />
  <path
     style="fill:#545454;fill-opacity:1;stroke:#2e2e2e;stroke-width:3.96715;stroke-linecap:round;stroke-linejoin:round;stroke-miterlimit:10;stroke-dasharray:none;stroke-opacity:1"
     d="M 56.871783,106.96125 V 82.606102 c 0,0 0.248088,-15.585804 2.478137,-22.95004 1.798693,-5.939785 4.66401,-11.716757 8.606265,-16.509979 2.778166,-3.377856 10.245555,-8.196444 10.245555,-8.196444 l -10.378021,3.285204 -7.291522,4.391494 -5.393466,5.092113 -4.376278,6.794201 -2.685191,7.281152 -1.708567,6.785456 -1.53906,9.730455 8.46e-4,28.651536"
     id="path2"
     sodipodi:nodetypes="ccaaccccccccc" />
  <path
     style="fill:#cd00ae;fill-opacity:1;stroke:#4f4f4f;stroke-width:5.615;stroke-linecap:round;stroke-linejoin:round;stroke-miterlimit:10;stroke-dasharray:none;stroke-opacity:1"
     d="m 77.478131,62.411266 3.29e-4,10.247434 6.301293,5.386094 6.331749,-5.807437 v -9.826211 l -6.316683,-5.385975 z"
     id="path3"
     sodipodi:nodetypes="ccccccc"
     inkscape:highlight-color="#aaaaaa"
     inkscape:label="crystal" />
  <path
     style="fill:#cd00ae;fill-opacity:1;stroke:#4f4f4f;stroke-width:5.615;stroke-linecap:round;stroke-linejoin:round;stroke-miterlimit:10;stroke-dasharray:none;stroke-opacity:1"
     d="M 103.26486,62.411266 V 72.6587 l 6.30129,5.386094 6.33241,-5.807437 v -9.826211 l -6.31685,-5.385975 z"
     id="path4"
     sodipodi:nodetypes="ccccccc"
     inkscape:label="crystal" />
  <path
     style="fill:none;fill-opacity:1;stroke:#080808;stroke-width:4.95893;stroke-linecap:round;stroke-linejoin:round;stroke-miterlimit:10;stroke-dasharray:none;stroke-opacity:1"
     d="M 44.830505,106.96125 V 82.606102 c 0,0 -2.509796,-47.773555 39.811297,-47.773555 42.321098,0 39.811298,47.773555 39.811298,47.773555 v 24.355148 z"
     id="path5"
     sodipodi:nodetypes="cczccc" />
  <path
     style="fill:#cd00ae;fill-opacity:1;stroke:none;stroke-width:1.98358;stroke-linecap:round;stroke-linejoin:round;stroke-miterlimit:10;stroke-dasharray:none;stroke-opacity:1"
     id="path6"
     sodipodi:type="arc"
     sodipodi:cx="50.920776"
     sodipodi:cy="100.42807"
     sodipodi:rx="2.7274127"
     sodipodi:ry="2.7274127"
     sodipodi:start="0.77584661"
     sodipodi:end="0.77186254"
     sodipodi:arc-type="slice"
     d="m 52.867681,102.33813 a 2.7274127,2.7274127 0 0 1 -3.855028,0.0387 2.7274127,2.7274127 0 0 1 -0.04258,-3.854991 2.7274127,2.7274127 0 0 1 3.854943,-0.04642 2.7274127,2.7274127 0 0 1 0.05026,3.854893 l -1.954499,-1.90229 z"
     inkscape:label="crystal" />
  <path
     style="fill:none;fill-opacity:1;stroke:none;stroke-width:2.18193;stroke-linecap:round;stroke-linejoin:round;stroke-miterlimit:10;stroke-dasharray:none;stroke-opacity:1"
     id="path7"
     sodipodi:type="arc"
     sodipodi:cx="83.794342"
     sodipodi:cy="67.535515"
     sodipodi:rx="2.1132774"
     sodipodi:ry="3.2728951"
     sodipodi:start="0.77584661"
     sodipodi:end="0.77186254"
     sodipodi:arc-type="slice"
     d="m 85.302859,69.827591 a 2.1132774,3.2728951 0 0 1 -2.986986,0.04649 2.1132774,3.2728951 0 0 1 -0.03299,-4.625985 2.1132774,3.2728951 0 0 1 2.986921,-0.05571 2.1132774,3.2728951 0 0 1 0.03894,4.625874 l -1.514402,-2.28275 z"
     inkscape:label="eye_circle" />
  <path
     style="fill:none;fill-opacity:1;stroke:none;stroke-width:2.18193;stroke-linecap:round;stroke-linejoin:round;stroke-miterlimit:10;stroke-dasharray:none;stroke-opacity:1"
     id="path8"
     sodipodi:type="arc"
     sodipodi:cx="109.58075"
     sodipodi:cy="67.535515"
     sodipodi:rx="2.1137447"
     sodipodi:ry="3.2728951"
     sodipodi:start="0.77584661"
     sodipodi:end="0.77186254"
     sodipodi:arc-type="slice"
     d="m 111.0896,69.827591 a 2.1137447,3.2728951 0 0 1 -2.98765,0.04649 2.1137447,3.2728951 0 0 1 -0.033,-4.625985 2.1137447,3.2728951 0 0 1 2.98758,-0.05571 2.1137447,3.2728951 0 0 1 0.039,4.625874 l -1.51474,-2.28275 z"
     inkscape:label="eye_circle" />
  <rect
     style="fill:#595959;fill-opacity:1;stroke:none;stroke-width:1.63772;stroke-linecap:round;stroke-linejoin:round;stroke-miterlimit:10;stroke-dasharray:none;stroke-opacity:1"
     id="rect8"
     width="29.969"
     height="14.67844"
     x="81.704063"
     y="85.405998"
     inkscape:label="mouth_box" />
  <path
     style="fill:#000000;fill-opacity:0.317259;stroke:none;stroke-width:2.54499;stroke-linecap:round;stroke-linejoin:round;stroke-miterlimit:10;stroke-dasharray:none;stroke-opacity:1"
     id="path9"
     sodipodi:type="arc"
     sodipodi:cx="69.22831"
     sodipodi:cy="43.69437"
     sodipodi:rx="2.4657526"
     sodipodi:ry="3.8174784"
     sodipodi:start="0.77584661"
     sodipodi:end="0.77186254"
     sodipodi:arc-type="slice"
     d="m 70.988434,46.367829 a 2.4657526,3.8174784 0 0 1 -3.485188,0.05423 2.4657526,3.8174784 0 0 1 -0.0385,-5.395711 2.4657526,3.8174784 0 0 1 3.485111,-0.06497 2.4657526,3.8174784 0 0 1 0.04544,5.395581 L 69.22831,43.69437 Z"
     inkscape:label="path9"
     transform="rotate(16.743274)" />
  <path
     style="fill:none;fill-opacity:0.317259;stroke:none;stroke-width:1.16253;stroke-linecap:round;stroke-linejoin:round;stroke-miterlimit:10;stroke-dasharray:none;stroke-opacity:1"
     id="path10"
     sodipodi:type="arc"
     sodipodi:cx="69.22834"
     sodipodi:cy="43.69434"
     sodipodi:rx="1.1264167"
     sodipodi:ry="1.7438"
     sodipodi:start="0.77584661"
     sodipodi:end="0.77186254"
     sodipodi:arc-type="slice"
     d="m 70.032408,44.915559 a 1.1264167,1.7438 0 0 1 -1.592119,0.02477 1.1264167,1.7438 0 0 1 -0.01759,-2.464726 1.1264167,1.7438 0 0 1 1.592085,-0.02968 1.1264167,1.7438 0 0 1 0.02076,2.464668 L 69.22834,43.69434 Z"
     inkscape:label="eye_circle"
     transform="rotate(16.743274)" />
  <path
     style="fill:none;fill-opacity:1;stroke:none;stroke-width:2.02278;stroke-linecap:round;stroke-linejoin:round;stroke-miterlimit:10;stroke-dasharray:none;stroke-opacity:1"
     id="path11"
     sodipodi:type="arc"
     sodipodi:cx="75.196701"
     sodipodi:cy="-62.903099"
     sodipodi:rx="1.9591391"
     sodipodi:ry="3.0341766"
     sodipodi:start="0.77584661"
     sodipodi:end="0.77186254"
     sodipodi:arc-type="slice"
     d="m 76.59519,-60.778203 a 1.9591391,3.0341766 0 0 1 -2.769121,0.0431 1.9591391,3.0341766 0 0 1 -0.03059,-4.288575 1.9591391,3.0341766 0 0 1 2.76906,-0.05164 1.9591391,3.0341766 0 0 1 0.0361,4.288472 l -1.403944,-2.116251 z"
     inkscape:label="eye_circle"
     transform="rotate(66.82753)" />
  <path
     style="fill:#000000;fill-opacity:0.317259;stroke:none;stroke-width:5.08414;stroke-linecap:round;stroke-linejoin:round;stroke-miterlimit:10;stroke-dasharray:none;stroke-opacity:1"
     id="path12"
     sodipodi:type="arc"
     sodipodi:cx="75.196701"
     sodipodi:cy="-62.903099"
     sodipodi:rx="4.9239998"
     sodipodi:ry="7.6262212"
     sodipodi:start="0.77584661"
     sodipodi:end="0.77186254"
     sodipodi:arc-type="slice"
     d="m 78.711592,-57.562299 a 4.9239998,7.6262212 0 0 1 -6.959767,0.10833 4.9239998,7.6262212 0 0 1 -0.07688,-10.779075 4.9239998,7.6262212 0 0 1 6.959614,-0.129803 4.9239998,7.6262212 0 0 1 0.09074,10.778817 l -3.528602,-5.319069 z"
     inkscape:label="path12"
     transform="rotate(66.82753)" />
  <path
     style="fill:#000000;fill-opacity:0.317259;stroke:none;stroke-width:4.31321;stroke-linecap:round;stroke-linejoin:round;stroke-miterlimit:10;stroke-dasharray:none;stroke-opacity:1"
     id="path12-0"
     sodipodi:type="arc"
     sodipodi:cx="-17.14958"
     sodipodi:cy="-113.1422"
     sodipodi:rx="4.1773505"
     sodipodi:ry="6.4698215"
     sodipodi:start="0.77584661"
     sodipodi:end="0.77186254"
     sodipodi:arc-type="slice"
     d="m -14.167669,-108.61125 a 4.1773505,6.4698215 0 0 1 -5.904424,0.0919 4.1773505,6.4698215 0 0 1 -0.06522,-9.1446 4.1773505,6.4698215 0 0 1 5.904295,-0.11012 4.1773505,6.4698215 0 0 1 0.07698,9.14438 l -2.993543,-4.51252 z"
     inkscape:label="path12"
     transform="rotate(147.1311)" />
  <path
     style="fill:#000000;fill-opacity:0.317259;stroke:none;stroke-width:2.53114;stroke-linecap:round;stroke-linejoin:round;stroke-miterlimit:10;stroke-dasharray:none;stroke-opacity:1"
     id="path12-0-8"
     sodipodi:type="arc"
     sodipodi:cx="-135.78911"
     sodipodi:cy="-48.178574"
     sodipodi:rx="2.4514112"
     sodipodi:ry="3.796711"
     sodipodi:start="0.77584661"
     sodipodi:end="0.77186254"
     sodipodi:arc-type="slice"
     d="m -134.03922,-45.519658 a 2.4514112,3.796711 0 0 1 -3.46492,0.05393 2.4514112,3.796711 0 0 1 -0.0383,-5.366358 2.4514112,3.796711 0 0 1 3.46484,-0.06462 2.4514112,3.796711 0 0 1 0.0452,5.36623 l -1.75671,-2.648097 z"
     inkscape:label="path12"
     transform="rotate(-164.3202)" />
  <path
     style="fill:#000000;fill-opacity:0.317259;stroke:none;stroke-width:1.85551;stroke-linecap:round;stroke-linejoin:round;stroke-miterlimit:10;stroke-dasharray:none;stroke-opacity:1"
     id="path12-0-4"
     sodipodi:type="arc"
     sodipodi:cx="-92.811005"
     sodipodi:cy="-21.637472"
     sodipodi:rx="1.7970636"
     sodipodi:ry="2.7832665"
     sodipodi:start="0.77584661"
     sodipodi:end="0.77186254"
     sodipodi:arc-type="slice"
     d="m -91.52821,-19.688293 a 1.7970636,2.7832665 0 0 1 -2.540037,0.03954 1.7970636,2.7832665 0 0 1 -0.02806,-3.933933 1.7970636,2.7832665 0 0 1 2.539981,-0.04737 1.7970636,2.7832665 0 0 1 0.03312,3.933838 l -1.287799,-1.941248 z"
     inkscape:label="path12"
     transform="rotate(-147.68537)" />
  <path
     style="fill:#000000;fill-opacity:0.317259;stroke:none;stroke-width:3.48322;stroke-linecap:round;stroke-linejoin:round;stroke-miterlimit:10;stroke-dasharray:none;stroke-opacity:1"
     id="path12-0-9"
     sodipodi:type="arc"
     sodipodi:cx="-87.284859"
     sodipodi:cy="-78.525368"
     sodipodi:rx="3.4070628"
     sodipodi:ry="5.1733694"
     sodipodi:start="0.77584661"
     sodipodi:end="0.77186254"
     sodipodi:arc-type="slice"
     d="m -84.852801,-74.90235 a 3.4070628,5.1733694 0 0 1 -4.815671,0.07349 3.4070628,5.1733694 0 0 1 -0.05319,-7.312159 3.4070628,5.1733694 0 0 1 4.815565,-0.08805 3.4070628,5.1733694 0 0 1 0.06279,7.311983 l -2.441545,-3.608276 z"
     inkscape:label="path12"
     transform="matrix(-0.97285823,-0.23140194,0.24134847,-0.97043852,0,0)" />
  <path
     style="fill:none;fill-opacity:0.317259;stroke:none;stroke-width:2.27344;stroke-linecap:round;stroke-linejoin:round;stroke-miterlimit:10;stroke-dasharray:none;stroke-opacity:1"
     id="path13"
     sodipodi:type="arc"
     sodipodi:cx="75.196701"
     sodipodi:cy="-62.903099"
     sodipodi:rx="2.2020235"
     sodipodi:ry="3.4101751"
     sodipodi:start="0.77584661"
     sodipodi:end="0.77186254"
     sodipodi:arc-type="slice"
     d="m 76.768568,-60.514883 a 2.2020235,3.4101751 0 0 1 -3.112423,0.04844 2.2020235,3.4101751 0 0 1 -0.03438,-4.820019 2.2020235,3.4101751 0 0 1 3.112355,-0.05804 2.2020235,3.4101751 0 0 1 0.04058,4.819904 l -1.577998,-2.378499 z"
     inkscape:label="eye_circle"
     transform="rotate(66.82753)" />
  <path
     style="fill:none;fill-opacity:0.317259;stroke:none;stroke-width:1.02021;stroke-linecap:round;stroke-linejoin:round;stroke-miterlimit:10;stroke-dasharray:none;stroke-opacity:1"
     id="path14"
     sodipodi:type="arc"
     sodipodi:cx="-92.811005"
     sodipodi:cy="-21.637472"
     sodipodi:rx="0.98807621"
     sodipodi:ry="1.5303184"
     sodipodi:start="0.77584661"
     sodipodi:end="0.77186254"
     sodipodi:arc-type="slice"
     d="m -92.105688,-20.565759 a 0.98807621,1.5303184 0 0 1 -1.396584,0.02174 0.98807621,1.5303184 0 0 1 -0.01543,-2.162987 0.98807621,1.5303184 0 0 1 1.396554,-0.02605 0.98807621,1.5303184 0 0 1 0.01821,2.162935 l -0.708068,-1.067353 z"
     inkscape:label="eye_circle"
     transform="rotate(-147.68537)" />
  <path
     style="fill:none;fill-opacity:0.317259;stroke:none;stroke-width:1.51863;stroke-linecap:round;stroke-linejoin:round;stroke-miterlimit:10;stroke-dasharray:none;stroke-opacity:1"
     id="path15"
     sodipodi:type="arc"
     sodipodi:cx="-17.14958"
     sodipodi:cy="-113.1422"
     sodipodi:rx="1.4705733"
     sodipodi:ry="2.2779555"
     sodipodi:start="0.77584661"
     sodipodi:end="0.77186254"
     sodipodi:arc-type="slice"
     d="m -16.099843,-111.5469 a 1.4705733,2.2779555 0 0 1 -2.078564,0.0324 1.4705733,2.2779555 0 0 1 -0.02296,-3.21971 1.4705733,2.2779555 0 0 1 2.078518,-0.0388 1.4705733,2.2779555 0 0 1 0.0271,3.21964 l -1.053832,-1.58881 z"
     inkscape:label="eye_circle"
     transform="rotate(147.1311)" />
  <path
     style="fill:none;fill-opacity:0.317259;stroke:none;stroke-width:1.07316;stroke-linecap:round;stroke-linejoin:round;stroke-miterlimit:10;stroke-dasharray:none;stroke-opacity:1"
     id="path16"
     sodipodi:type="arc"
     sodipodi:cx="-87.284859"
     sodipodi:cy="-78.525368"
     sodipodi:rx="1.0498285"
     sodipodi:ry="1.5938851"
     sodipodi:start="0.77584661"
     sodipodi:end="0.77186254"
     sodipodi:arc-type="slice"
     d="m -86.535461,-77.409137 a 1.0498285,1.5938851 0 0 1 -1.483868,0.02264 1.0498285,1.5938851 0 0 1 -0.01639,-2.252834 1.0498285,1.5938851 0 0 1 1.483834,-0.02713 1.0498285,1.5938851 0 0 1 0.01935,2.252779 l -0.752321,-1.111689 z"
     inkscape:label="eye_circle"
     transform="matrix(-0.97285823,-0.23140194,0.24134847,-0.97043852,0,0)" />
  <path
     style="fill:none;fill-opacity:0.317259;stroke:none;stroke-width:0.975209;stroke-linecap:round;stroke-linejoin:round;stroke-miterlimit:10;stroke-dasharray:none;stroke-opacity:1"
     id="path17"
     sodipodi:type="arc"
     sodipodi:cx="-135.78911"
     sodipodi:cy="-48.178574"
     sodipodi:rx="0.94455421"
     sodipodi:ry="1.4628185"
     sodipodi:start="0.77584661"
     sodipodi:end="0.77186254"
     sodipodi:arc-type="slice"
     d="m -135.11486,-47.154132 a 0.94455421,1.4628185 0 0 1 -1.33507,0.02078 0.94455421,1.4628185 0 0 1 -0.0147,-2.067582 0.94455421,1.4628185 0 0 1 1.33503,-0.0249 0.94455421,1.4628185 0 0 1 0.0174,2.067531 l -0.67688,-1.020274 z"
     inkscape:label="eye_circle"
     transform="rotate(-164.3202)" />
</svg>
